<svg width="22" height="22" viewBox="0 0 22 22" fill="none" xmlns="http://www.w3.org/2000/svg">
<path d="M3.6665 15.5833L3.6665 15.4C3.6665 13.8598 3.6665 13.0898 3.96625 12.5015C4.22989 11.984 4.65055 11.5634 5.168 11.2997C5.75632 11 6.52632 11 8.0665 11L13.9332 11C15.4733 11 16.2434 11 16.8316 11.2997C17.3491 11.5634 17.7698 11.984 18.0334 12.5015C18.3332 13.0898 18.3332 13.8598 18.3332 15.4L18.3332 15.5833M3.6665 15.5833C2.65395 15.5833 1.83317 16.4041 1.83317 17.4167C1.83317 18.4292 2.65395 19.25 3.6665 19.25C4.67905 19.25 5.49984 18.4292 5.49984 17.4167C5.49984 16.4041 4.67905 15.5833 3.6665 15.5833ZM18.3332 15.5833C17.3206 15.5833 16.4998 16.4041 16.4998 17.4167C16.4998 18.4292 17.3206 19.25 18.3332 19.25C19.3457 19.25 20.1665 18.4292 20.1665 17.4167C20.1665 16.4041 19.3457 15.5833 18.3332 15.5833ZM10.9998 6.41667L10.9998 15.5833M10.9998 6.41667C9.98729 6.41667 9.1665 5.59586 9.1665 4.58333C9.1665 3.57081 9.98729 2.75 10.9998 2.75C12.0124 2.75 12.8332 3.57081 12.8332 4.58333C12.8332 5.59586 12.0124 6.41667 10.9998 6.41667ZM10.9998 15.5833C9.98729 15.5833 9.1665 16.4041 9.1665 17.4167C9.1665 18.4292 9.98729 19.25 10.9998 19.25C12.0124 19.25 12.8332 18.4292 12.8332 17.4167C12.8332 16.4041 12.0124 15.5833 10.9998 15.5833Z" stroke="#344563" stroke-width="1.5" stroke-linecap="round" stroke-linejoin="round"/>
</svg>
