<svg width="22" height="22" viewBox="0 0 22 22" fill="none" xmlns="http://www.w3.org/2000/svg">
<path d="M12.8332 10.083H7.33317M9.1665 13.7497H7.33317M14.6665 6.41634H7.33317M18.3332 9.62467V6.23301C18.3332 4.69286 18.3332 3.92279 18.0334 3.33454C17.7698 2.81709 17.3491 2.39639 16.8317 2.13274C16.2434 1.83301 15.4734 1.83301 13.9332 1.83301H8.0665C6.52636 1.83301 5.75628 1.83301 5.16803 2.13274C4.65058 2.39639 4.22989 2.81709 3.96624 3.33454C3.6665 3.92279 3.6665 4.69286 3.6665 6.23301V15.7663C3.6665 17.3065 3.6665 18.0765 3.96624 18.6648C4.22989 19.1823 4.65058 19.603 5.16803 19.8666C5.75628 20.1663 6.52636 20.1663 8.0665 20.1663H10.5415M20.1665 20.1663L18.7915 18.7913M19.7082 16.4997C19.7082 18.2716 18.2718 19.708 16.4998 19.708C14.7279 19.708 13.2915 18.2716 13.2915 16.4997C13.2915 14.7278 14.7279 13.2913 16.4998 13.2913C18.2718 13.2913 19.7082 14.7278 19.7082 16.4997Z" stroke="#323238" stroke-width="1.5" stroke-linecap="round" stroke-linejoin="round"/>
</svg>
