<svg width="22" height="22" viewBox="0 0 22 22" fill="none" xmlns="http://www.w3.org/2000/svg">
<path d="M12.8332 2.08008V5.86641C12.8332 6.37978 12.8332 6.63648 12.9331 6.83256C13.021 7.00504 13.1612 7.14527 13.3337 7.23316C13.5297 7.33307 13.7864 7.33307 14.2998 7.33307H18.0861M12.8332 15.583H7.33317M14.6665 11.9163H7.33317M18.3332 9.15554V15.7663C18.3332 17.3065 18.3332 18.0765 18.0334 18.6648C17.7698 19.1823 17.3491 19.603 16.8317 19.8666C16.2434 20.1663 15.4734 20.1663 13.9332 20.1663H8.0665C6.52636 20.1663 5.75628 20.1663 5.16803 19.8666C4.65058 19.603 4.22989 19.1823 3.96624 18.6648C3.6665 18.0765 3.6665 17.3065 3.6665 15.7663V6.23301C3.6665 4.69286 3.6665 3.92279 3.96624 3.33454C4.22989 2.81709 4.65058 2.39639 5.16803 2.13274C5.75628 1.83301 6.52636 1.83301 8.0665 1.83301H11.0107C11.6832 1.83301 12.0195 1.83301 12.3361 1.90899C12.6167 1.97636 12.8849 2.08747 13.131 2.23825C13.4085 2.40831 13.6463 2.64612 14.1219 3.12174L17.0444 6.04428C17.5201 6.5199 17.7579 6.75771 17.9279 7.03523C18.0787 7.28127 18.1898 7.54952 18.2572 7.83012C18.3332 8.14661 18.3332 8.48292 18.3332 9.15554Z" stroke="#344563" stroke-width="1.5" stroke-linecap="round" stroke-linejoin="round"/>
</svg>
