<svg width="16" height="14" viewBox="0 0 16 14" fill="none" xmlns="http://www.w3.org/2000/svg">
<path d="M1.3335 2.06667C1.3335 1.6933 1.3335 1.50661 1.40616 1.36401C1.47007 1.23856 1.57206 1.13658 1.6975 1.07266C1.84011 1 2.02679 1 2.40016 1H13.6002C13.9735 1 14.1602 1 14.3028 1.07266C14.4283 1.13658 14.5303 1.23856 14.5942 1.36401C14.6668 1.50661 14.6668 1.6933 14.6668 2.06667V2.51293C14.6668 2.69213 14.6668 2.78173 14.6449 2.86504C14.6255 2.93887 14.5936 3.00882 14.5505 3.07184C14.5019 3.14295 14.4342 3.20164 14.2988 3.319L10.0349 7.01434C9.89949 7.1317 9.83178 7.19038 9.78316 7.26149C9.74007 7.32451 9.70813 7.39446 9.68873 7.46829C9.66683 7.55161 9.66683 7.64121 9.66683 7.8204V11.3056C9.66683 11.436 9.66683 11.5011 9.6458 11.5575C9.62722 11.6073 9.597 11.6519 9.55767 11.6877C9.51314 11.7281 9.45262 11.7524 9.33157 11.8008L7.0649 12.7074C6.81987 12.8055 6.69736 12.8545 6.59901 12.834C6.51301 12.8161 6.43753 12.765 6.389 12.6918C6.3335 12.6081 6.3335 12.4762 6.3335 12.2122V7.8204C6.3335 7.64121 6.3335 7.55161 6.3116 7.46829C6.29219 7.39446 6.26025 7.32451 6.21717 7.26149C6.16855 7.19038 6.10084 7.1317 5.96542 7.01434L1.70157 3.319C1.56615 3.20164 1.49844 3.14295 1.44982 3.07184C1.40674 3.00882 1.3748 2.93887 1.35539 2.86504C1.3335 2.78173 1.3335 2.69213 1.3335 2.51293V2.06667Z" stroke="#344563" stroke-width="1.5" stroke-linecap="round" stroke-linejoin="round"/>
</svg>
