<svg width="22" height="22" viewBox="0 0 22 22" fill="none" xmlns="http://www.w3.org/2000/svg">
<path d="M8.33266 8.24967C8.54817 7.63704 8.97355 7.12044 9.5335 6.79138C10.0934 6.46232 10.7517 6.34204 11.3918 6.45183C12.0319 6.56162 12.6124 6.8944 13.0307 7.39124C13.4489 7.88808 13.6778 8.5169 13.6768 9.16634C13.6768 10.9997 10.9268 11.9163 10.9268 11.9163M11.0002 15.583H11.0093M20.1668 10.9997C20.1668 16.0622 16.0627 20.1663 11.0002 20.1663C5.93755 20.1663 1.8335 16.0622 1.8335 10.9997C1.8335 5.93706 5.93755 1.83301 11.0002 1.83301C16.0627 1.83301 20.1668 5.93706 20.1668 10.9997Z" stroke="#344563" stroke-width="1.5" stroke-linecap="round" stroke-linejoin="round"/>
</svg>
