<svg width="22" height="22" viewBox="0 0 22 22" fill="none" xmlns="http://www.w3.org/2000/svg">
<path d="M11.9004 2.53385C11.5784 2.28337 11.4174 2.15813 11.2395 2.10998C11.0827 2.06751 10.9173 2.06751 10.7605 2.10998C10.5826 2.15813 10.4216 2.28337 10.0996 2.53385L3.88244 7.36938C3.46685 7.69262 3.25906 7.85424 3.10936 8.05664C2.97676 8.23592 2.87797 8.4379 2.81786 8.65265C2.75 8.89508 2.75 9.15833 2.75 9.68486V16.3169C2.75 17.3436 2.75 17.8569 2.94982 18.2492C3.12559 18.5941 3.40605 18.8746 3.75102 19.0503C4.14319 19.2502 4.65657 19.2502 5.68333 19.2502H7.51667C7.77336 19.2502 7.9017 19.2502 7.99975 19.2002C8.08599 19.1563 8.15611 19.0862 8.20004 18.9999C8.25 18.9018 8.25 18.7735 8.25 18.5169V12.4669C8.25 11.9534 8.25 11.6968 8.34991 11.5007C8.4378 11.3282 8.57803 11.188 8.75051 11.1001C8.94659 11.0002 9.20324 11.0002 9.71667 11.0002H12.2833C12.7968 11.0002 13.0534 11.0002 13.2495 11.1001C13.422 11.188 13.5622 11.3282 13.6501 11.5007C13.75 11.6968 13.75 11.9534 13.75 12.4669V18.5169C13.75 18.7735 13.75 18.9018 13.8 18.9999C13.8439 19.0862 13.914 19.1563 14.0003 19.2002C14.0983 19.2502 14.2267 19.2502 14.4833 19.2502H16.3167C17.3434 19.2502 17.8569 19.2502 18.249 19.0503C18.5939 18.8746 18.8744 18.5941 19.0502 18.2492C19.25 17.8569 19.25 17.3436 19.25 16.3169V9.68486C19.25 9.15833 19.25 8.89508 19.1822 8.65265C19.122 8.4379 19.0232 8.23592 18.8907 8.05664C18.741 7.85424 18.5332 7.69262 18.1176 7.36939L11.9004 2.53385Z" stroke="#344563" stroke-width="1.5" stroke-linecap="round" stroke-linejoin="round"/>
</svg>
