<svg width="20" height="20" viewBox="0 0 20 20" fill="none" xmlns="http://www.w3.org/2000/svg">
<path d="M7.79496 17.5003C8.38255 18.019 9.15447 18.3337 9.9998 18.3337C10.8452 18.3337 11.617 18.019 12.2046 17.5003M14.9998 6.66699C14.9998 5.34091 14.4731 4.06914 13.5354 3.13146C12.5976 2.19378 11.3259 1.66699 9.9998 1.66699C8.67372 1.66699 7.40197 2.19378 6.46428 3.13146C5.5266 4.06914 4.99982 5.34091 4.99982 6.66699C4.99982 9.24216 4.35021 11.0053 3.62453 12.1715C3.01242 13.1552 2.70637 13.6471 2.71758 13.7843C2.73002 13.9362 2.7622 13.9942 2.88462 14.085C2.9952 14.167 3.49364 14.167 4.49052 14.167H15.5091C16.506 14.167 17.0045 14.167 17.115 14.085C17.2375 13.9942 17.2696 13.9362 17.2821 13.7843C17.2933 13.6471 16.9872 13.1552 16.3751 12.1715C15.6494 11.0053 14.9998 9.24216 14.9998 6.66699Z" stroke="#344563" stroke-width="1.5" stroke-linecap="round" stroke-linejoin="round"/>
</svg>
