<svg width="22" height="22" viewBox="0 0 22 22" fill="none" xmlns="http://www.w3.org/2000/svg">
<path d="M5.50016 13.7497L7.3335 15.583L11.4585 11.458M7.3335 7.33301V4.76634C7.3335 3.73958 7.3335 3.22619 7.53332 2.83403C7.70908 2.48906 7.98955 2.20859 8.33451 2.03283C8.72668 1.83301 9.24007 1.83301 10.2668 1.83301H17.2335C18.2603 1.83301 18.7737 1.83301 19.1658 2.03283C19.5108 2.20859 19.7913 2.48906 19.967 2.83403C20.1668 3.22619 20.1668 3.73958 20.1668 4.76634V11.733C20.1668 12.7598 20.1668 13.2732 19.967 13.6653C19.7913 14.0103 19.5108 14.2908 19.1658 14.4665C18.7737 14.6663 18.2603 14.6663 17.2335 14.6663H14.6668M4.76683 20.1663H11.7335C12.7603 20.1663 13.2737 20.1663 13.6658 19.9665C14.0108 19.7908 14.2913 19.5103 14.467 19.1653C14.6668 18.7732 14.6668 18.2598 14.6668 17.233V10.2663C14.6668 9.23958 14.6668 8.72619 14.467 8.33403C14.2913 7.98906 14.0108 7.70859 13.6658 7.53283C13.2737 7.33301 12.7603 7.33301 11.7335 7.33301H4.76683C3.74007 7.33301 3.22668 7.33301 2.83451 7.53283C2.48955 7.70859 2.20908 7.98906 2.03332 8.33403C1.8335 8.72619 1.8335 9.23958 1.8335 10.2663V17.233C1.8335 18.2598 1.8335 18.7732 2.03332 19.1653C2.20908 19.5103 2.48955 19.7908 2.83451 19.9665C3.22668 20.1663 3.74006 20.1663 4.76683 20.1663Z" stroke="#344563" stroke-width="1.5" stroke-linecap="round" stroke-linejoin="round"/>
</svg>
