<svg width="16" height="20" viewBox="0 0 16 20" fill="none" xmlns="http://www.w3.org/2000/svg">
<path d="M9.00016 12.9788C8.88905 12.9788 8.78488 12.9615 8.68766 12.9268C8.59044 12.892 8.50016 12.833 8.41683 12.7497L5.41683 9.74967C5.25016 9.58301 5.1703 9.38856 5.17725 9.16634C5.18419 8.94412 5.26405 8.74967 5.41683 8.58301C5.5835 8.41634 5.78141 8.32954 6.01058 8.32259C6.23975 8.31565 6.43766 8.39551 6.60433 8.56217L8.16683 10.1247V4.16634C8.16683 3.93023 8.24669 3.73231 8.40641 3.57259C8.56613 3.41287 8.76405 3.33301 9.00016 3.33301C9.23627 3.33301 9.43419 3.41287 9.59391 3.57259C9.75363 3.73231 9.8335 3.93023 9.8335 4.16634V10.1247L11.396 8.56217C11.5627 8.39551 11.7606 8.31565 11.9897 8.32259C12.2189 8.32954 12.4168 8.41634 12.5835 8.58301C12.7363 8.74967 12.8161 8.94412 12.8231 9.16634C12.83 9.38856 12.7502 9.58301 12.5835 9.74967L9.5835 12.7497C9.50016 12.833 9.40988 12.892 9.31266 12.9268C9.21544 12.9615 9.11127 12.9788 9.00016 12.9788ZM4.00016 16.6663C3.54183 16.6663 3.14947 16.5031 2.82308 16.1768C2.49669 15.8504 2.3335 15.458 2.3335 14.9997V13.333C2.3335 13.0969 2.41336 12.899 2.57308 12.7393C2.7328 12.5795 2.93072 12.4997 3.16683 12.4997C3.40294 12.4997 3.60086 12.5795 3.76058 12.7393C3.9203 12.899 4.00016 13.0969 4.00016 13.333V14.9997H14.0002V13.333C14.0002 13.0969 14.08 12.899 14.2397 12.7393C14.3995 12.5795 14.5974 12.4997 14.8335 12.4997C15.0696 12.4997 15.2675 12.5795 15.4272 12.7393C15.587 12.899 15.6668 13.0969 15.6668 13.333V14.9997C15.6668 15.458 15.5036 15.8504 15.1772 16.1768C14.8509 16.5031 14.4585 16.6663 14.0002 16.6663H4.00016Z" fill="#344563"/>
</svg>
