<svg width="22" height="22" viewBox="0 0 22 22" fill="none" xmlns="http://www.w3.org/2000/svg">
<path d="M2.75 7.33301H13.75M13.75 7.33301C13.75 8.8518 14.9812 10.083 16.5 10.083C18.0188 10.083 19.25 8.85179 19.25 7.33301C19.25 5.81423 18.0188 4.58301 16.5 4.58301C14.9812 4.58301 13.75 5.81423 13.75 7.33301ZM8.25 14.6663H19.25M8.25 14.6663C8.25 16.1852 7.01878 17.4163 5.5 17.4163C3.98122 17.4163 2.75 16.1852 2.75 14.6663C2.75 13.1475 3.98122 11.9163 5.5 11.9163C7.01878 11.9163 8.25 13.1475 8.25 14.6663Z" stroke="#344563" stroke-width="1.5" stroke-linecap="round" stroke-linejoin="round"/>
</svg>
