<svg width="14" height="14" viewBox="0 0 14 14" fill="none" xmlns="http://www.w3.org/2000/svg">
<path d="M1 1V7.8C1 8.92013 1 9.48013 1.21799 9.908C1.40973 10.2843 1.71569 10.5903 2.09202 10.782C2.51984 11 3.07989 11 4.2 11H9M9 11C9 12.1046 9.8954 13 11 13C12.1046 13 13 12.1046 13 11C13 9.8954 12.1046 9 11 9C9.8954 9 9 9.8954 9 11ZM1 4.33333H9M9 4.33333C9 5.43791 9.8954 6.33333 11 6.33333C12.1046 6.33333 13 5.4379 13 4.33333C13 3.22877 12.1046 2.33333 11 2.33333C9.8954 2.33333 9 3.22877 9 4.33333Z" stroke="#344563" stroke-width="1.5" stroke-linecap="round" stroke-linejoin="round"/>
</svg>
