<svg width="22" height="22" viewBox="0 0 22 22" fill="none" xmlns="http://www.w3.org/2000/svg">
<path d="M7.7 2.75H4.21667C3.70329 2.75 3.44659 2.75 3.25051 2.84991C3.07803 2.9378 2.9378 3.07803 2.84991 3.25051C2.75 3.44659 2.75 3.70329 2.75 4.21667V7.7C2.75 8.21338 2.75 8.47007 2.84991 8.66616C2.9378 8.83864 3.07803 8.97887 3.25051 9.06676C3.44659 9.16667 3.70329 9.16667 4.21667 9.16667H7.7C8.21338 9.16667 8.47007 9.16667 8.66616 9.06676C8.83864 8.97887 8.97887 8.83864 9.06676 8.66616C9.16667 8.47007 9.16667 8.21338 9.16667 7.7V4.21667C9.16667 3.70329 9.16667 3.44659 9.06676 3.25051C8.97887 3.07803 8.83864 2.9378 8.66616 2.84991C8.47007 2.75 8.21338 2.75 7.7 2.75Z" stroke="#344563" stroke-width="1.5" stroke-linecap="round" stroke-linejoin="round"/>
<path d="M17.7835 2.75H14.3002C13.7867 2.75 13.5301 2.75 13.334 2.84991C13.1615 2.9378 13.0213 3.07803 12.9334 3.25051C12.8335 3.44659 12.8335 3.70329 12.8335 4.21667V7.7C12.8335 8.21338 12.8335 8.47007 12.9334 8.66616C13.0213 8.83864 13.1615 8.97887 13.334 9.06676C13.5301 9.16667 13.7867 9.16667 14.3002 9.16667H17.7835C18.2969 9.16667 18.5536 9.16667 18.7497 9.06676C18.9222 8.97887 19.0623 8.83864 19.1502 8.66616C19.2502 8.47007 19.2502 8.21338 19.2502 7.7V4.21667C19.2502 3.70329 19.2502 3.44659 19.1502 3.25051C19.0623 3.07803 18.9222 2.9378 18.7497 2.84991C18.5536 2.75 18.2969 2.75 17.7835 2.75Z" stroke="#344563" stroke-width="1.5" stroke-linecap="round" stroke-linejoin="round"/>
<path d="M17.7835 12.833H14.3002C13.7867 12.833 13.5301 12.833 13.334 12.9329C13.1615 13.0208 13.0213 13.161 12.9334 13.3335C12.8335 13.5296 12.8335 13.7862 12.8335 14.2997V17.783C12.8335 18.2964 12.8335 18.5531 12.9334 18.7492C13.0213 18.9217 13.1615 19.0618 13.334 19.1498C13.5301 19.2497 13.7867 19.2497 14.3002 19.2497H17.7835C18.2969 19.2497 18.5536 19.2497 18.7497 19.1498C18.9222 19.0618 19.0623 18.9217 19.1502 18.7492C19.2502 18.5531 19.2502 18.2964 19.2502 17.783V14.2997C19.2502 13.7862 19.2502 13.5296 19.1502 13.3335C19.0623 13.161 18.9222 13.0208 18.7497 12.9329C18.5536 12.833 18.2969 12.833 17.7835 12.833Z" stroke="#344563" stroke-width="1.5" stroke-linecap="round" stroke-linejoin="round"/>
<path d="M7.7 12.833H4.21667C3.70329 12.833 3.44659 12.833 3.25051 12.9329C3.07803 13.0208 2.9378 13.161 2.84991 13.3335C2.75 13.5296 2.75 13.7862 2.75 14.2997V17.783C2.75 18.2964 2.75 18.5531 2.84991 18.7492C2.9378 18.9217 3.07803 19.0618 3.25051 19.1498C3.44659 19.2497 3.70329 19.2497 4.21667 19.2497H7.7C8.21338 19.2497 8.47007 19.2497 8.66616 19.1498C8.83864 19.0618 8.97887 18.9217 9.06676 18.7492C9.16667 18.5531 9.16667 18.2964 9.16667 17.783V14.2997C9.16667 13.7862 9.16667 13.5296 9.06676 13.3335C8.97887 13.161 8.83864 13.0208 8.66616 12.9329C8.47007 12.833 8.21338 12.833 7.7 12.833Z" stroke="#344563" stroke-width="1.5" stroke-linecap="round" stroke-linejoin="round"/>
</svg>
